<?xml version="1.0" standalone="no"?>
<!DOCTYPE svg PUBLIC "-//W3C//DTD SVG 20010904//EN"
 "http://www.w3.org/TR/2001/REC-SVG-20010904/DTD/svg10.dtd">
<svg version="1.0" xmlns="http://www.w3.org/2000/svg"
 width="700.000000pt" height="700.000000pt" viewBox="0 0 700.000000 700.000000"
 preserveAspectRatio="xMidYMid meet">
<metadata>
Created by potrace 1.14, written by Peter Selinger 2001-2017
</metadata>
<g transform="translate(0.000000,700.000000) scale(0.100000,-0.100000)"
fill="#000000" stroke="none">
<path d="M3307 6854 c-1 -1 -74 -5 -162 -8 -88 -4 -176 -8 -195 -10 -19 -2
-80 -7 -135 -10 -55 -4 -109 -9 -120 -11 -11 -2 -47 -7 -80 -10 -64 -6 -108
-11 -165 -20 -19 -3 -53 -8 -75 -11 -22 -3 -78 -12 -125 -20 -47 -8 -96 -17
-110 -19 -112 -18 -376 -87 -510 -132 -441 -149 -660 -348 -596 -544 23 -69
48 -105 121 -168 56 -48 225 -151 250 -151 6 0 33 20 60 45 28 25 82 71 122
102 l72 57 -57 21 c-102 37 -272 141 -272 166 0 10 114 80 190 116 112 52 340
128 475 159 56 12 258 54 285 58 101 18 307 47 352 51 29 2 73 7 98 10 330 39
1025 49 1310 20 25 -3 83 -7 130 -10 47 -3 101 -7 120 -10 19 -2 53 -7 75 -9
133 -17 213 -28 235 -32 14 -2 56 -9 94 -14 37 -6 71 -12 75 -14 3 -2 23 -7
43 -10 199 -31 497 -120 673 -201 66 -30 185 -105 185 -116 0 -23 -173 -127
-272 -164 -27 -10 -48 -20 -47 -24 0 -3 28 -28 62 -54 34 -26 89 -72 121 -101
l59 -54 66 35 c209 112 315 231 315 353 -1 63 -2 70 -31 125 -75 144 -330 289
-703 399 -78 23 -219 58 -280 70 -14 2 -56 11 -95 19 -61 14 -95 20 -180 33
-11 1 -56 8 -100 14 -44 6 -91 13 -105 15 -14 3 -56 7 -95 11 -38 3 -77 8 -86
9 -39 8 -229 21 -434 30 -128 7 -554 13 -558 9z"/>
<path d="M3289 6266 c-2 -2 -35 -7 -74 -10 -490 -47 -987 -243 -1386 -547
-176 -134 -349 -300 -474 -456 -30 -37 -59 -73 -64 -79 -73 -89 -216 -323
-288 -474 -77 -159 -171 -417 -189 -516 -3 -14 -12 -56 -20 -93 -20 -83 -21
-89 -30 -148 -3 -26 -8 -57 -10 -68 -26 -141 -26 -542 0 -745 44 -343 169
-711 344 -1010 54 -94 149 -240 162 -250 3 -3 17 -21 30 -40 60 -87 229 -272
346 -380 105 -97 404 -320 428 -320 4 0 30 -15 59 -33 123 -77 370 -186 547
-240 140 -43 236 -65 445 -102 116 -20 537 -27 670 -12 33 4 80 10 105 13 58
7 275 51 320 65 19 5 59 17 88 25 55 14 277 96 309 113 10 5 45 22 78 37 95
44 253 132 345 194 84 56 259 189 297 226 11 11 46 44 79 75 300 285 519 610
674 999 66 166 132 406 154 560 2 19 8 58 12 85 3 28 9 59 11 70 9 40 11 472
3 545 -5 41 -12 95 -14 120 -39 327 -172 716 -349 1020 -48 82 -161 254 -182
276 -5 6 -21 26 -35 44 -107 140 -302 337 -456 460 -58 46 -170 124 -244 171
-47 30 -95 60 -105 66 -47 30 -268 135 -360 171 -150 60 -327 112 -460 137
-65 12 -142 25 -185 31 -24 3 -56 8 -70 11 -34 6 -505 15 -511 9z m-681 -1912
c238 -51 445 -241 526 -481 37 -108 23 -175 -43 -220 -46 -31 -117 -31 -157
-1 -42 33 -52 47 -70 108 -22 75 -45 117 -94 173 -54 60 -132 111 -206 133
-53 15 -154 21 -199 11 -103 -23 -174 -62 -238 -129 -49 -53 -81 -108 -107
-189 -11 -36 -30 -76 -41 -87 -89 -97 -253 -33 -251 97 1 41 34 146 64 206 34
66 79 127 138 185 123 122 255 187 420 207 25 3 46 6 48 8 7 6 147 -7 210 -21z
m2097 5 c127 -26 289 -113 371 -201 89 -95 157 -216 186 -328 29 -112 -22
-197 -124 -205 -81 -6 -126 34 -163 144 -67 202 -233 321 -439 313 -176 -7
-338 -130 -392 -298 -30 -93 -53 -126 -102 -145 -105 -41 -214 48 -196 161 18
113 104 272 198 365 101 101 278 187 416 202 30 3 56 6 58 8 6 5 134 -5 187
-16z m-2470 -1825 c18 -8 53 -41 78 -72 43 -55 134 -147 207 -212 51 -44 216
-153 285 -187 117 -59 292 -119 395 -137 19 -3 45 -8 58 -11 84 -16 329 -23
397 -11 17 3 51 7 77 10 201 24 453 126 653 265 70 49 237 206 333 315 19 20
45 41 58 47 64 24 140 -1 175 -57 45 -73 32 -124 -58 -230 -311 -366 -751
-598 -1218 -641 -132 -12 -381 -6 -445 12 -8 2 -33 6 -55 10 -327 48 -707 247
-965 505 -176 177 -211 245 -167 330 37 72 118 99 192 64z"/>
</g>
</svg>
